<svg width="4" height="16" viewBox="0 0 4 16" fill="none" xmlns="http://www.w3.org/2000/svg">
<path d="M3.95836 11.9107C4.00003 11.8214 4.01044 11.7054 3.9844 11.5982C3.95836 11.4911 3.90108 11.4286 3.83337 11.4286H2.6667V0.285719C2.6667 0.125 2.59378 0 2.50003 0H1.50003C1.40628 0 1.33337 0.125 1.33337 0.285719V11.4286H0.166699C0.098996 11.4286 0.0417017 11.5 0.0156614 11.5982C-0.010379 11.7054 3.90001e-05 11.8214 0.0417017 11.9107L1.89066 15.3393C1.9219 15.3929 1.96878 15.4286 2.01566 15.4286C2.06253 15.4286 2.10419 15.3929 2.13545 15.3393L3.95836 11.9107Z" fill="white"/>
</svg>
