<svg class="svg-icon" style="width: 1em; height: 1em;vertical-align: middle;fill: currentColor;overflow: hidden;" viewBox="0 0 1024 1024" version="1.1" xmlns="http://www.w3.org/2000/svg"><path d="M862.315789 754.526316 862.315789 808.421053 1024 808.421053 1024 0 215.578947 0 215.578947 161.684211 269.473684 161.684211 269.473684 53.894737 970.105263 53.894737 970.105263 754.526316Z"  /><path d="M0 224.525474l0 790.528C0 1020.011789 4.958316 1024 11.102316 1024l786.162526 0C803.462737 1024 808.421053 1020.011789 808.421053 1015.053474L808.421053 224.525474C808.421053 219.567158 803.462737 215.578947 797.318737 215.578947L11.102316 215.578947C4.958316 215.578947 0 219.567158 0 224.525474zM53.894737 269.473684l700.631579 0 0 700.631579L53.894737 970.105263 53.894737 269.473684z"  /></svg>